PathFileType	4	(X/Y/Z)	C:\Users\WrightLab\Desktop\Jo\P5V137.trc
DataRate	CameraRate	NumFrames	NumMarkers	Units	OrigDataRate	OrigDataStartFrame	OrigNumFrames
100.00	100.00	       11	19	mm	100.00	334	       534
Frame#	Time	Headset_Front			Headset_Back			Headset_Left			Headset_Right			Left_Shoulder			Right_Shoulder			Sternum			C7			Left Elbow			Right Elbow			Left Wrist			Right Wrist			Left ASIS			Right ASIS			S2			Left Knee			Right Knee			Left Ankle			Right Ankle			
		X1	Y1	Z1	X2	Y2	Z2	X3	Y3	Z3	X4	Y4	Z4	X5	Y5	Z5	X6	Y6	Z6	X7	Y7	Z7	X8	Y8	Z8	X9	Y9	Z9	X10	Y10	Z10	X11	Y11	Z11	X12	Y12	Z12	X13	Y13	Z13	X14	Y14	Z14	X15	Y15	Z15	X16	Y16	Z16	X17	Y17	Z17	X18	Y18	Z18	X19	Y19	Z19	

334	3.330													-879.77393	1474.79688	1271.40759	-487.58838	1462.90259	1162.44287							-974.06213	1218.10059	1189.52722	-412.33310	1229.23254	1138.46960	-897.61237	1129.13367	1392.59338	-442.15079	1199.27551	1348.52527	-864.27075	974.44067	1344.05212	-583.42596	938.54498	1346.31995	-674.94305	978.20966	1062.44019	-912.56976	552.01685	1342.34888	-649.64148	493.49255	1238.88831	-926.41638	126.24271	1246.51379	-638.67273	228.54993	943.85272	
335	3.340	-485.54794	1467.01172	1178.94727										-880.53595	1475.33130	1287.14490										-977.82147	1218.77417	1206.77881	-415.66782	1229.87170	1140.95801	-895.58569	1129.75037	1408.12280	-442.09818	1201.12439	1352.67761	-861.99030	974.45972	1357.37073	-581.41473	940.77905	1353.25842	-678.23840	980.53412	1072.83057	-915.40906	551.91388	1350.14941	-650.09760	493.12204	1259.47729	-926.30658	126.95790	1247.40112	-647.05170	238.97691	958.23846	
336	3.350	60.96404	1908.36694	2592.60864										-880.60492	1475.90710	1302.48547	-682.32111	1336.28589	1371.80737							-981.54443	1219.80786	1223.83826	-419.30954	1230.48169	1143.43616	-893.16266	1130.24231	1423.50574	-440.72250	1203.12817	1358.77954	-859.44897	974.92456	1370.42395	-577.09320	941.48584	1360.32666	-681.20111	982.35541	1082.97607	-918.53577	551.54175	1357.67908	-649.29254	492.35172	1281.54541	-926.31213	127.90573	1248.19006	-652.84564	249.32047	973.25513	
337	3.360													-880.86572	1476.72852	1317.62146	-680.75928	1337.40015	1381.51917							-984.29456	1220.34131	1240.73071	-423.18970	1233.00403	1149.15588	-890.98022	1131.26514	1438.74097	-441.23508	1204.65295	1362.15918	-856.75122	975.98950	1382.86694	-572.30701	943.17017	1367.04956	-685.62244	984.05176	1093.88184	-921.54950	550.76215	1365.12659	-647.51099	492.47742	1302.51892	-926.10211	129.28780	1248.96143	-661.81873	259.05850	988.04840	
338	3.370													-880.50726	1477.56677	1332.52100	-678.95428	1338.91223	1391.21448							-986.90930	1221.82153	1258.14160	-426.81958	1235.52942	1152.33521	-888.81238	1132.88892	1453.90833	-440.71875	1206.72937	1366.66406	-852.78101	976.19867	1394.89905	-568.37109	944.47906	1373.03320	-689.14209	985.47821	1102.62842				-645.49091	493.12146	1322.68494	-925.72748	130.58922	1249.39258	-668.40710	268.19730	1004.90094	
339	3.380													-879.84589	1478.71558	1347.14868	-676.78638	1340.21472	1400.81787							-987.77472	1222.78345	1275.41443	-429.44788	1237.20081	1157.61719	-885.29529	1133.75232	1468.86121	-440.29803	1207.88684	1369.89270	-848.73486	977.02484	1406.79639	-564.37537	946.14777	1380.29211	-693.13312	987.30518	1114.28613				-643.06451	493.76599	1344.10815	-925.62805	132.14648	1250.40271	-675.31299	273.75439	1024.62146	
340	3.390													-878.64734	1479.54053	1361.61182	-674.41748	1341.34167	1410.39514							-988.62653	1224.58862	1292.82751	-432.18292	1239.93359	1162.56042	-881.89459	1135.09863	1483.70349	-438.95557	1209.95935	1374.24414	-844.89368	977.89594	1418.64673	-560.33990	945.88184	1385.94409	-695.94745	988.59436	1122.09778				-639.01245	496.20609	1364.41028	-925.72791	134.00427	1251.75146	-682.50018	275.20932	1045.39331	
341	3.400													-877.36047	1480.76672	1375.91089	-672.35925	1342.66394	1419.96106							-988.67047	1226.29761	1310.12476	-434.94150	1242.29382	1167.64636	-878.94403	1137.13245	1498.32690	-438.74210	1211.65747	1379.57068	-840.08386	978.53235	1429.96570	-556.45880	947.99695	1391.08691	-699.79126	989.44983	1132.56299				-636.09113	497.58099	1384.47888	-925.62280	135.32658	1252.85083	-688.22003	276.51163	1068.25061	
342	3.410	-717.48438	1545.39209	1225.88416										-876.20172	1482.06641	1390.10693	-670.34991	1344.13342	1429.60327							-988.20959	1227.60132	1327.23511	-437.99655	1244.14832	1170.22986	-874.20886	1138.15100	1512.76611	-437.29904	1213.30798	1384.93506	-835.23932	978.62567	1440.88782	-551.78973	949.85297	1398.22107	-701.21039	992.99481	1140.14417				-632.96753	499.29968	1404.05249	-926.02307	137.08498	1254.99414	-693.06396	276.86417	1091.73486	
343	3.420	-429.79047	1246.05615	1516.96899										-875.16962	1483.48621	1404.27527	-668.07654	1345.35913	1439.26660							-988.24194	1229.36829	1344.06311	-440.48224	1246.38953	1176.38928				-436.62482	1215.10144	1389.23914	-831.37573	979.39026	1451.31372	-548.21460	951.01459	1403.55823	-703.66986	994.43372	1149.34583				-628.30634	502.27808	1422.86780	-925.66766	138.66512	1256.27515	-698.07184	274.77124	1117.11584	
344	3.430													-873.95697	1485.01538	1418.41553	-665.64056	1346.12842	1448.95996							-988.50018	1231.14258	1360.60693	-442.69675	1248.52295	1181.87915				-435.94708	1215.80603	1392.88928	-825.98523	978.92468	1461.35400	-544.39655	952.39917	1409.53333	-705.48645	995.96521	1158.96826				-624.22668	506.74728	1441.17737	-925.60388	140.34363	1257.74170	-700.37598	272.53082	1141.55469	
